<?xml version="1.0" encoding="UTF-8" standalone="no"?>
<!-- Created with Inkscape (http://www.inkscape.org/) -->

<svg
   xmlns:dc="http://purl.org/dc/elements/1.1/"
   xmlns:cc="http://creativecommons.org/ns#"
   xmlns:rdf="http://www.w3.org/1999/02/22-rdf-syntax-ns#"
   xmlns:svg="http://www.w3.org/2000/svg"
   xmlns="http://www.w3.org/2000/svg"
   xmlns:sodipodi="http://sodipodi.sourceforge.net/DTD/sodipodi-0.dtd"
   xmlns:inkscape="http://www.inkscape.org/namespaces/inkscape"
   version="1.1"
   id="svg89905"
   xml:space="preserve"
   width="800"
   height="800"
   viewBox="0 0 800 800"
   sodipodi:docname="woman-work-silhouette.svg"
   inkscape:version="0.92.4 (5da689c313, 2019-01-14)"><metadata
     id="metadata89911"><rdf:RDF><cc:Work
         rdf:about=""><dc:format>image/svg+xml</dc:format><dc:type
           rdf:resource="http://purl.org/dc/dcmitype/StillImage" /><dc:title></dc:title></cc:Work></rdf:RDF></metadata><defs
     id="defs89909"><clipPath
       clipPathUnits="userSpaceOnUse"
       id="clipPath89921"><path
         d="M 0,600 H 600 V 0 H 0 Z"
         id="path89919"
         inkscape:connector-curvature="0" /></clipPath></defs><sodipodi:namedview
     pagecolor="#ffffff"
     bordercolor="#666666"
     borderopacity="1"
     objecttolerance="10"
     gridtolerance="10"
     guidetolerance="10"
     inkscape:pageopacity="0"
     inkscape:pageshadow="2"
     inkscape:window-width="797"
     inkscape:window-height="480"
     id="namedview89907"
     showgrid="false"
     inkscape:zoom="0.295"
     inkscape:cx="400"
     inkscape:cy="400"
     inkscape:window-x="0"
     inkscape:window-y="0"
     inkscape:window-maximized="0"
     inkscape:current-layer="g89913" /><g
     id="g89913"
     inkscape:groupmode="layer"
     inkscape:label="woman-work-silhouette"
     transform="matrix(1.3333333,0,0,-1.3333333,0,800)"><g
       id="g89915"><g
         id="g89917"
         clip-path="url(#clipPath89921)"><path
           d="m 174.764,561.751 c -14.919,0.281 -28.921,-2.68 -40.128,-10.028 l 7.272,-27.665 z"
           style="fill:#c32424;fill-opacity:1;fill-rule:nonzero;stroke:none"
           id="path89923"
           inkscape:connector-curvature="0" /><path
           d="m 134.636,551.723 c -4.596,-3.013 -8.724,-6.759 -12.249,-11.327 -1.568,-1.991 -3.059,-3.976 -4.482,-5.953 l 24.003,-10.385 z"
           style="fill:#c11e24;fill-opacity:1;fill-rule:nonzero;stroke:none"
           id="path89925"
           inkscape:connector-curvature="0" /><path
           d="m 117.905,534.443 c -3.28,-4.558 -6.185,-9.078 -8.748,-13.578 l 32.751,3.193 z"
           style="fill:#c61e25;fill-opacity:1;fill-rule:nonzero;stroke:none"
           id="path89927"
           inkscape:connector-curvature="0" /><path
           d="m 262.138,528.853 c -17.606,14.38 -43.197,26.395 -68.429,30.953 l -1.53,-62.347 z"
           style="fill:#c1c654;fill-opacity:1;fill-rule:nonzero;stroke:none"
           id="path89929"
           inkscape:connector-curvature="0" /><path
           d="m 192.179,497.459 1.53,62.347 c -6.383,1.153 -12.743,1.829 -18.945,1.945 l -32.856,-37.693 z"
           style="fill:#ce551e;fill-opacity:1;fill-rule:nonzero;stroke:none"
           id="path89931"
           inkscape:connector-curvature="0" /><path
           d="m 229.417,420.058 47.978,17.475 c -3.126,5.32 -7.085,11.125 -9.264,15.888 0.93,4.349 2.137,8.704 3.331,13.061 l -79.283,30.977 z"
           style="fill:#d2e747;fill-opacity:1;fill-rule:nonzero;stroke:none"
           id="path89933"
           inkscape:connector-curvature="0" /><path
           d="m 271.462,466.482 c 2.875,10.481 5.675,20.976 4.344,31.438 l 5.383,8.884 c -3.828,7.519 -10.497,15.063 -19.051,22.049 l -69.959,-31.394 z"
           style="fill:#a9dc65;fill-opacity:1;fill-rule:nonzero;stroke:none"
           id="path89935"
           inkscape:connector-curvature="0" /><path
           d="m 92.073,460.924 c -0.837,-16.662 0.76,-33.853 3.094,-52.245 l 51.263,1.538 z"
           style="fill:#e02324;fill-opacity:1;fill-rule:nonzero;stroke:none"
           id="path89937"
           inkscape:connector-curvature="0" /><path
           d="m 141.908,524.058 -32.751,-3.193 C 97.756,500.855 93.096,481.285 92.073,460.924 l 54.357,-50.707 z"
           style="fill:#dd2824;fill-opacity:1;fill-rule:nonzero;stroke:none"
           id="path89939"
           inkscape:connector-curvature="0" /><path
           d="m 141.908,524.058 4.522,-113.841 45.749,87.242 z"
           style="fill:#df4f1e;fill-opacity:1;fill-rule:nonzero;stroke:none"
           id="path89941"
           inkscape:connector-curvature="0" /><path
           d="m 192.179,497.459 -45.749,-87.242 82.987,9.841 z"
           style="fill:#e77618;fill-opacity:1;fill-rule:nonzero;stroke:none"
           id="path89943"
           inkscape:connector-curvature="0" /><path
           d="m 261.888,398.648 0.52,2.401 c 2.626,2.759 9.223,4.04 6.262,8.415 -1.954,11.175 6.26,9.827 10.769,13.058 4.747,1.838 2.074,8.003 -2.044,15.011 l -47.978,-17.475 z"
           style="fill:#d4ea64;fill-opacity:1;fill-rule:nonzero;stroke:none"
           id="path89945"
           inkscape:connector-curvature="0" /><path
           d="m 146.43,410.217 57.693,-29.188 c 0.061,0.392 0.122,0.785 0.191,1.172 3.452,-1.554 6.801,-2.963 10.052,-4.236 l 15.051,42.093 z"
           style="fill:#f27c15;fill-opacity:1;fill-rule:nonzero;stroke:none"
           id="path89947"
           inkscape:connector-curvature="0" /><path
           d="m 98.191,386.121 c 1.128,-8.291 2.268,-16.85 3.287,-25.729 l 57.454,7.002 z"
           style="fill:#ee2d21;fill-opacity:1;fill-rule:nonzero;stroke:none"
           id="path89949"
           inkscape:connector-curvature="0" /><path
           d="m 146.43,410.217 -51.263,-1.538 c 0.928,-7.315 1.971,-14.821 3.024,-22.558 l 60.741,-18.727 z"
           style="fill:#ef2f21;fill-opacity:1;fill-rule:nonzero;stroke:none"
           id="path89951"
           inkscape:connector-curvature="0" /><path
           d="m 158.932,367.394 44.499,7.128 c 0.135,2.258 0.365,4.426 0.692,6.507 l -57.693,29.188 z"
           style="fill:#f36618;fill-opacity:1;fill-rule:nonzero;stroke:none"
           id="path89953"
           inkscape:connector-curvature="0" /><path
           d="m 214.366,377.965 c 1.396,-0.546 2.773,-1.067 4.134,-1.562 l 36.398,1.77 c 0.684,2.865 0.82,6.283 0.711,9.952 7.473,2.557 8.08,5.924 5.924,8.884 l 0.355,1.639 -32.471,21.41 z"
           style="fill:#eddd30;fill-opacity:1;fill-rule:nonzero;stroke:none"
           id="path89955"
           inkscape:connector-curvature="0" /><path
           d="m 158.932,367.394 -57.454,-7.002 c 0.27,-2.356 0.532,-4.734 0.783,-7.138 1.211,-8.213 6.259,-13.195 13.598,-16.021 -4.04,-8.081 -8.012,-17.907 -11.174,-30.161 -1.026,-3.913 -1.934,-7.841 -2.736,-11.776 l 27.457,-18.869 z"
           style="fill:#f14f1b;fill-opacity:1;fill-rule:nonzero;stroke:none"
           id="path89957"
           inkscape:connector-curvature="0" /><path
           d="m 101.949,295.296 c -1.405,-6.901 -2.481,-13.831 -3.278,-20.772 l 30.735,1.903 z"
           style="fill:#f14a1c;fill-opacity:1;fill-rule:nonzero;stroke:none"
           id="path89959"
           inkscape:connector-curvature="0" /><path
           d="m 203.713,271.632 44.328,10.289 c -1.069,1.87 -2.179,3.767 -3.337,5.7 -13.315,22.34 -15.685,44.444 -35.789,61.763 l -10.96,-61.04 c 2.149,-5.295 4.063,-10.886 5.758,-16.712"
           style="fill:#f9cf08;fill-opacity:1;fill-rule:nonzero;stroke:none"
           id="path89961"
           inkscape:connector-curvature="0" /><path
           d="m 202.236,271.289 c -1.406,5.115 -2.958,10.088 -4.673,14.875 l -2.989,-16.652 z"
           style="fill:#f9cf08;fill-opacity:1;fill-rule:nonzero;stroke:none"
           id="path89963"
           inkscape:connector-curvature="0" /><path
           d="m 240.194,370.353 c 9.33,-1.83 13.253,1.749 14.704,7.82 l -36.398,-1.77 c 7.82,-2.849 15.042,-4.857 21.694,-6.05"
           style="fill:#f1ef1b;fill-opacity:1;fill-rule:nonzero;stroke:none"
           id="path89965"
           inkscape:connector-curvature="0" /><path
           d="m 194.574,269.512 2.989,16.652 c -1.486,4.152 -3.093,8.169 -4.829,12.024 l 0.607,0.335 c 1.648,-3.246 3.182,-6.649 4.614,-10.179 l 10.96,61.04 c -1.34,1.154 -2.759,2.287 -4.266,3.398 l -0.066,-0.068 c -1.145,8.014 -1.542,15.28 -1.152,21.808 l -44.499,-7.128 z"
           style="fill:#f79310;fill-opacity:1;fill-rule:nonzero;stroke:none"
           id="path89967"
           inkscape:connector-curvature="0" /><path
           d="m 158.932,367.394 -29.526,-90.967 65.168,-6.915 z"
           style="fill:#f68612;fill-opacity:1;fill-rule:nonzero;stroke:none"
           id="path89969"
           inkscape:connector-curvature="0" /><path
           d="m 204.259,263.398 c -0.637,2.665 -1.311,5.295 -2.023,7.891 l -7.662,-1.777 z"
           style="fill:#facc09;fill-opacity:1;fill-rule:nonzero;stroke:none"
           id="path89971"
           inkscape:connector-curvature="0" /><path
           d="m 206.235,262.15 61.778,-38.991 c -1.34,19.898 -7.795,37.46 -19.972,58.762 l -44.328,-10.289 c 0.902,-3.098 1.74,-6.263 2.522,-9.482"
           style="fill:#facc09;fill-opacity:1;fill-rule:nonzero;stroke:none"
           id="path89973"
           inkscape:connector-curvature="0" /><path
           d="M 129.406,276.427 98.671,274.524 C 96.986,259.853 96.548,245.125 96.9,230.509 l 42.349,-35.208 z"
           style="fill:#f2561a;fill-opacity:1;fill-rule:nonzero;stroke:none"
           id="path89975"
           inkscape:connector-curvature="0" /><path
           d="m 213.16,196.394 c -1.136,22.853 -3.867,45.956 -8.901,67.004 l -9.685,6.114 z"
           style="fill:#f9aa0c;fill-opacity:1;fill-rule:nonzero;stroke:none"
           id="path89977"
           inkscape:connector-curvature="0" /><path
           d="m 215.334,187.839 7.434,-29.244 43.342,31.006 0.473,3.369 c 1.562,10.998 2.058,20.851 1.43,30.189 l -61.778,38.991 c 5.625,-23.129 8.267,-49.125 9.099,-74.311"
           style="fill:#f9aa0c;fill-opacity:1;fill-rule:nonzero;stroke:none"
           id="path89979"
           inkscape:connector-curvature="0" /><path
           d="m 96.9,230.509 c 0.322,-13.371 1.303,-26.654 2.588,-39.722 l 39.761,4.514 z"
           style="fill:#f14c1c;fill-opacity:1;fill-rule:nonzero;stroke:none"
           id="path89981"
           inkscape:connector-curvature="0" /><path
           d="m 129.406,276.427 9.843,-81.126 55.325,74.211 z"
           style="fill:#f57515;fill-opacity:1;fill-rule:nonzero;stroke:none"
           id="path89983"
           inkscape:connector-curvature="0" /><path
           d="m 215.334,187.839 c 0.292,-8.851 0.361,-17.601 0.259,-26.09 l 7.175,-3.154 z"
           style="fill:#f68712;fill-opacity:1;fill-rule:nonzero;stroke:none"
           id="path89985"
           inkscape:connector-curvature="0" /><path
           d="m 139.249,195.301 74.504,-32.743 c 0.143,11.024 -0.025,22.398 -0.593,33.836 l -18.586,73.118 z"
           style="fill:#f68712;fill-opacity:1;fill-rule:nonzero;stroke:none"
           id="path89987"
           inkscape:connector-curvature="0" /><path
           d="m 99.488,190.787 c 1.413,-14.377 3.194,-28.494 4.872,-42.189 l 34.889,46.703 z"
           style="fill:#ef401e;fill-opacity:1;fill-rule:nonzero;stroke:none"
           id="path89989"
           inkscape:connector-curvature="0" /><path
           d="M 139.249,195.301 104.36,148.598 c 2.839,-23.18 5.378,-45.151 5.333,-65.117 l 29.289,0.373 z"
           style="fill:#f03f1e;fill-opacity:1;fill-rule:nonzero;stroke:none"
           id="path89991"
           inkscape:connector-curvature="0" /><path
           d="m 258.301,133.942 7.809,55.659 -43.342,-31.006 z"
           style="fill:#f7990f;fill-opacity:1;fill-rule:nonzero;stroke:none"
           id="path89993"
           inkscape:connector-curvature="0" /><path
           d="m 215.593,161.749 c -0.041,-3.285 -0.106,-6.53 -0.194,-9.728 l 7.369,6.574 z"
           style="fill:#f36518;fill-opacity:1;fill-rule:nonzero;stroke:none"
           id="path89995"
           inkscape:connector-curvature="0" /><path
           d="m 138.982,83.854 74.484,66.444 c 0.137,4.025 0.233,8.118 0.287,12.26 l -74.504,32.743 z"
           style="fill:#f36518;fill-opacity:1;fill-rule:nonzero;stroke:none"
           id="path89997"
           inkscape:connector-curvature="0" /><path
           d="m 385.156,76.178 c -1.286,-0.477 -2.579,-0.882 -3.873,-1.201 l 3.736,-1.497 z"
           style="fill:#f2541b;fill-opacity:1;fill-rule:nonzero;stroke:none"
           id="path89999"
           inkscape:connector-curvature="0" /><path
           d="m 387.627,77.183 c -0.82,-0.362 -1.646,-0.7 -2.471,-1.005 l -0.137,-2.698 z"
           style="fill:#e0621b;fill-opacity:1;fill-rule:nonzero;stroke:none"
           id="path90001"
           inkscape:connector-curvature="0" /><path
           d="m 274.188,102.683 -47.037,13.683 3.597,-34.641 z"
           style="fill:#f57914;fill-opacity:1;fill-rule:nonzero;stroke:none"
           id="path90003"
           inkscape:connector-curvature="0" /><path
           d="m 226.89,118.885 28.585,-5.08 2.826,20.137 -35.533,24.653 z"
           style="fill:#f57914;fill-opacity:1;fill-rule:nonzero;stroke:none"
           id="path90005"
           inkscape:connector-curvature="0" /><path
           d="m 138.982,83.854 91.766,-2.129 -3.597,34.641 -13.412,3.902 -2.02,0.537 c 0.788,9.23 1.397,19.148 1.747,29.493 z"
           style="fill:#f36218;fill-opacity:1;fill-rule:nonzero;stroke:none"
           id="path90007"
           inkscape:connector-curvature="0" /><path
           d="m 215.399,152.021 c -0.304,-10.96 -0.874,-21.357 -1.593,-30.81 l 13.084,-2.326 -4.122,39.71 z"
           style="fill:#f36218;fill-opacity:1;fill-rule:nonzero;stroke:none"
           id="path90009"
           inkscape:connector-curvature="0" /><path
           d="m 485.514,85.651 c -0.711,0.683 -1.453,1.361 -2.237,2.033 -4.508,2.897 -7.741,6.33 -17.366,6.733 5.72,5.116 10.501,3.635 15.349,2.625 l 13.347,-6.635 9.06,4.738 c -15.333,8.061 -28.305,16.408 -38.362,15.9 h -4.146 l 8.709,-33.576 z"
           style="fill:#c22823;fill-opacity:1;fill-rule:nonzero;stroke:none"
           id="path90011"
           inkscape:connector-curvature="0" /><path
           d="m 469.868,77.469 -8.709,33.576 h -13.962 c -6.8,0 -13.195,0.268 -18.647,-5.387 -11.801,-6.621 -26.068,-21.93 -40.923,-28.475 l -2.608,-3.703 z"
           style="fill:#d63822;fill-opacity:1;fill-rule:nonzero;stroke:none"
           id="path90013"
           inkscape:connector-curvature="0" /><path
           d="m 138.982,83.854 75.17,-50.113 8.684,0.039 7.912,47.945 z"
           style="fill:#f1501b;fill-opacity:1;fill-rule:nonzero;stroke:none"
           id="path90015"
           inkscape:connector-curvature="0" /><path
           d="M 138.982,83.854 109.693,83.481 C 109.662,69.85 108.428,57.15 105.258,45.64 l 8.722,-6.472 z"
           style="fill:#ee2e21;fill-opacity:1;fill-rule:nonzero;stroke:none"
           id="path90017"
           inkscape:connector-curvature="0" /><path
           d="m 252.644,54.115 c 10.289,-2.076 20.574,-3.495 30.86,-4.452 l 6.238,48.494 -15.554,4.526 -43.44,-20.958 z"
           style="fill:#f36019;fill-opacity:1;fill-rule:nonzero;stroke:none"
           id="path90019"
           inkscape:connector-curvature="0" /><path
           d="m 334.412,47.794 50.607,25.686 -3.736,1.497 c -3.153,-0.783 -6.319,-1.066 -9.482,-0.69 l -82.059,23.87 -6.238,-48.494 c 16.972,-1.579 33.938,-1.904 50.908,-1.869"
           style="fill:#f1511b;fill-opacity:1;fill-rule:nonzero;stroke:none"
           id="path90021"
           inkscape:connector-curvature="0" /><path
           d="m 504.012,85.733 c 12.993,-6.125 15.954,-0.54 15.349,1.951 -5.468,2.248 -10.704,4.839 -15.694,7.461 l -9.06,-4.738 z"
           style="fill:#be1e24;fill-opacity:1;fill-rule:nonzero;stroke:none"
           id="path90023"
           inkscape:connector-curvature="0" /><path
           d="m 474.396,58.099 c 9.838,-0.476 26.031,1.274 24.231,5.553 -2.268,7.658 -5.928,15.093 -13.113,21.999 l -15.646,-8.182 z"
           style="fill:#be1e24;fill-opacity:1;fill-rule:nonzero;stroke:none"
           id="path90025"
           inkscape:connector-curvature="0" /><path
           d="m 334.412,47.794 c 19.221,0.037 38.443,0.537 57.671,0.2 l -7.064,25.486 z"
           style="fill:#ef2e21;fill-opacity:1;fill-rule:nonzero;stroke:none"
           id="path90027"
           inkscape:connector-curvature="0" /><path
           d="m 385.019,73.48 7.064,-25.486 c 4.819,-0.085 9.635,-0.221 14.453,-0.431 25.447,2.491 21.071,12.253 46.045,19.389 1.455,0.323 2.921,0.261 4.394,-0.122 l 12.893,10.639 z"
           style="fill:#dc2a23;fill-opacity:1;fill-rule:nonzero;stroke:none"
           id="path90029"
           inkscape:connector-curvature="0" /><path
           d="m 222.836,33.78 26.041,0.118 c -1.076,7.339 -0.47,14.473 0,21.004 1.256,-0.272 2.513,-0.533 3.767,-0.787 l -21.896,27.61 z"
           style="fill:#f2561a;fill-opacity:1;fill-rule:nonzero;stroke:none"
           id="path90031"
           inkscape:connector-curvature="0" /><path
           d="m 105.258,45.64 c -1.03,-3.739 -2.265,-7.351 -3.727,-10.83 l 12.449,4.358 z"
           style="fill:#e52324;fill-opacity:1;fill-rule:nonzero;stroke:none"
           id="path90033"
           inkscape:connector-curvature="0" /><path
           d="m 113.98,39.168 57.078,-5.625 43.094,0.198 -75.17,50.113 z"
           style="fill:#f03e1e;fill-opacity:1;fill-rule:nonzero;stroke:none"
           id="path90035"
           inkscape:connector-curvature="0" /><path
           d="m 456.975,66.83 c 3.43,-0.892 6.89,-3.542 10.281,-7.217 0.523,-0.822 3.363,-1.332 7.14,-1.514 l -4.528,19.37 z"
           style="fill:#cb1e25;fill-opacity:1;fill-rule:nonzero;stroke:none"
           id="path90037"
           inkscape:connector-curvature="0" /><path
           d="m 101.531,34.81 c -0.223,-0.532 -0.45,-1.061 -0.685,-1.585 l 9.533,0.044 3.601,5.899 z"
           style="fill:#dc1e25;fill-opacity:1;fill-rule:nonzero;stroke:none"
           id="path90039"
           inkscape:connector-curvature="0" /><path
           d="m 113.98,39.168 -3.601,-5.899 5.299,0.024 z"
           style="fill:#de2125;fill-opacity:1;fill-rule:nonzero;stroke:none"
           id="path90041"
           inkscape:connector-curvature="0" /><path
           d="m 115.678,33.293 55.38,0.25 -57.078,5.625 z"
           style="fill:#ed3520;fill-opacity:1;fill-rule:nonzero;stroke:none"
           id="path90043"
           inkscape:connector-curvature="0" /></g></g></g></svg>